Coordinates
version=1
nRows=29
nColumns=18
inDegrees=yes

Units are S.I. units (second, meters, Newtons, ...)
Angles are in degrees.

endheader
time	pelvis_tilt	pelvis_list	pelvis_rotation	pelvis_tx	pelvis_ty	pelvis_tz	hip_flexion_r	hip_adduction_r	hip_rotation_r	knee_angle_r	ankle_angle_r	hip_flexion_l	hip_adduction_l	hip_rotation_l	knee_angle_l	ankle_angle_l	lumbar_extension
      1.19000000	    -12.84283537	      2.15327664	      2.24924541	     -0.71068832	      0.80381167	      0.20781477	     53.76528357	     -2.72766710	      0.00000000	    -31.60044836	     27.54603157	     23.44912087	      8.50898884	      0.00000000	    -47.45821463	     44.88151729	     -5.00000214
      1.20000000	    -12.68344177	      2.21566613	      2.32128474	     -0.69924510	      0.80365837	      0.20894438	     53.44615485	     -2.81144300	      0.00000000	    -30.60703235	     27.74864156	     22.51702046	      8.41873788	      0.00000000	    -47.73202926	     44.56081849	     -5.00000214
      1.21000000	    -12.38554187	      2.40699970	      2.29615050	     -0.68687770	      0.80360814	      0.20968854	     53.18179322	     -2.96353559	      0.00000000	    -30.49603629	     28.10103665	     21.26029285	      8.51371288	      0.00000000	    -47.78514076	     44.18481155	     -5.00000214
      1.22000000	    -11.94636176	      2.75840023	      2.17739029	     -0.67356136	      0.80357428	      0.20992404	     53.02412705	     -3.22959366	      0.00000000	    -31.36768916	     28.59885497	     19.68505147	      8.84852670	      0.00000000	    -47.63586451	     43.78179426	     -5.00000214
      1.23000000	    -11.34689697	      3.21031704	      1.96373928	     -0.65918136	      0.80366691	      0.20991043	     52.82960229	     -3.54711320	      0.00000000	    -32.98129800	     29.19295752	     17.74885571	      9.32949513	      0.00000000	    -47.24309002	     43.34977863	     -5.00000214
      1.24000000	    -10.55135181	      3.74547361	      1.60862927	     -0.64352949	      0.80401197	      0.20977218	     52.45614214	     -3.88892364	      0.00000000	    -35.12147909	     29.84273020	     15.36182928	      9.93219098	      0.00000000	    -46.51712594	     42.82935134	     -5.00000214
      1.25000000	     -9.58873014	      4.34811419	      1.11410968	     -0.62677753	      0.80452168	      0.20957631	     51.87873180	     -4.26350608	      0.00000000	    -37.61086276	     30.39575444	     12.59959059	     10.64645495	      0.00000000	    -45.49287606	     42.12754540	     -5.00000214
      1.26000000	     -8.22193162	      5.08382318	      0.23801397	     -0.60761438	      0.80584538	      0.20922749	     50.67039216	     -4.67970269	      0.00000000	    -40.16660615	     31.27493175	      8.77396469	     11.59913929	      0.00000000	    -43.40484803	     41.23757450	     -5.00000214
      1.27000000	     -6.60611505	      5.89656831	     -0.92656478	     -0.58696644	      0.80749877	      0.20889755	     49.08565579	     -5.18483920	      0.00000000	    -42.75567927	     31.92280749	      4.31166120	     12.75308849	      0.00000000	    -40.58837238	     39.76465465	     -5.00000214
      1.28000000	     -4.31531667	      6.77250550	     -2.89243962	     -0.56264706	      0.81025146	      0.20912442	     46.57120034	     -5.65676808	      0.00000000	    -45.26387634	     32.93049165	     -2.05506621	     14.23788903	      0.00000000	    -35.49223102	     37.91328296	     -5.00000214
      1.29000000	      4.41858082	      4.76965219	    -15.09967151	     -0.50509712	      0.81535580	      0.23239193	     36.40788904	     -0.74755274	      0.00000000	    -50.20462398	     37.96483183	    -37.47252736	     17.24659468	      0.00000000	     12.74743665	     16.57540347	     -5.00000214
      1.30000000	      4.99948295	      5.18678045	    -14.82067840	     -0.48996260	      0.81614580	      0.23245654	     35.35107082	     -1.70213904	      0.00000000	    -51.16333792	     37.66703097	    -37.40369409	     17.59802104	      0.00000000	      9.57095456	     15.52967108	     -5.00000214
      1.31000000	      5.38813854	      5.82892812	    -14.27088522	     -0.47583449	      0.81731939	      0.23129573	     34.61944581	     -2.99211162	      0.00000000	    -52.01666871	     37.19384171	    -35.96216362	     17.98425692	      0.00000000	      4.28380351	     15.77274049	     -5.00000214
      1.32000000	      0.12794061	      7.60130692	     -6.00090197	     -0.49104077	      0.81314791	      0.21776761	     40.62218495	     -6.11417723	      0.00000000	    -51.40309189	     33.74136049	    -12.42518848	     15.72463427	      0.00000000	    -32.28298065	     27.75176063	     -5.00000214
      1.33000000	     -0.73631026	      7.23913216	     -4.63607443	     -0.48362101	      0.81088188	      0.22038933	     41.36411815	     -5.69470007	      0.00000000	    -52.43313040	     33.22048192	     -8.75483788	     14.52588452	      0.00000000	    -39.00965225	     25.76317134	     -5.00000214
      1.34000000	     -1.33871025	      6.77262442	     -3.61979102	     -0.47492708	      0.80878624	      0.22370692	     41.86477759	     -5.06299168	      0.00000000	    -53.67473884	     33.07109419	     -5.89611552	     13.32088016	      0.00000000	    -44.55874835	     23.39975524	     -5.00000214
      1.35000000	     -1.69294953	      6.23980379	     -2.87093679	     -0.46505259	      0.80691859	      0.22743220	     42.04463545	     -4.27221732	      0.00000000	    -54.97419714	     33.61327418	     -3.67364966	     12.11754986	      0.00000000	    -49.28121708	     21.02524311	     -5.00000214
      1.36000000	     -2.16095483	      5.58104954	     -2.06676392	     -0.45591955	      0.80469039	      0.23156011	     42.33358195	     -3.26211462	      0.00000000	    -56.19548634	     33.75399814	     -1.14891864	     10.70489067	      0.00000000	    -54.13193950	     19.91364673	     -5.00000214
      1.37000000	     -2.55684140	      4.87415169	     -1.39191746	     -0.44656796	      0.80263824	      0.23596838	     42.40717594	     -2.12456477	      0.00000000	    -57.18913693	     34.56373368	      1.21348732	      9.24803920	      0.00000000	    -58.59247476	     19.15949873	     -5.00000214
      1.38000000	     -3.00441430	      4.14021870	     -0.83148645	     -0.43764061	      0.80066943	      0.24058380	     42.46331754	     -0.89432955	      0.00000000	    -57.94430320	     35.52460086	      3.68697453	      7.77327321	      0.00000000	    -62.83009399	     18.85174963	     -5.00000214
      1.39000000	     -3.54999240	      3.33856379	     -0.33465841	     -0.42943963	      0.79887444	      0.24562311	     42.51399419	      0.48186021	      0.00000000	    -58.35851779	     36.34950238	      6.41126425	      6.16573543	      0.00000000	    -66.92991880	     18.66984729	     -5.00000214
      1.40000000	     -4.12589149	      2.49394063	      0.02336067	     -0.42159386	      0.79750986	      0.25099567	     42.46120315	      1.96558948	      0.00000000	    -58.40088143	     37.12309657	      9.22303611	      4.49324994	      0.00000000	    -70.73307206	     18.47616612	     -5.00000214
      1.41000000	     -4.66977731	      1.59542300	      0.27468578	     -0.41383934	      0.79664376	      0.25672659	     42.24732527	      3.56317108	      0.00000000	    -58.13270010	     37.85673522	     12.02335071	      2.69798001	      0.00000000	    -74.18466725	     18.19687092	     -5.00000214
      1.42000000	     -5.21977448	      0.92344347	      0.37649423	     -0.40620948	      0.79605987	      0.26145955	     42.09817368	      4.81491894	      0.00000000	    -57.88736088	     38.59789575	     14.80040997	      1.33680962	      0.00000000	    -77.23665097	     18.17801291	     -5.00000214
      1.43000000	     -5.58915360	      0.08863700	      0.42186228	     -0.39784101	      0.79609621	      0.26692915	     41.57210758	      6.34836709	      0.00000000	    -57.35398010	     39.30484376	     17.26099624	     -0.35817123	      0.00000000	    -79.86267280	     18.14849797	     -5.00000214
      1.44000000	     -5.91781828	     -0.55460772	      0.41542652	     -0.38930785	      0.79638793	      0.27139825	     41.04350411	      7.55871799	      0.00000000	    -56.88575764	     39.96637738	     19.61928836	     -1.69149608	      0.00000000	    -82.10189818	     18.30818813	     -5.00000214
      1.45000000	     -6.06794657	     -1.18461016	      0.36979962	     -0.37992088	      0.79717958	      0.27572583	     40.21721504	      8.75061696	      0.00000000	    -56.30995607	     40.67810480	     21.61189056	     -2.99779966	      0.00000000	    -83.87237387	     18.60032084	     -5.00000214
      1.46000000	     -6.18838524	     -1.66266234	      0.28551387	     -0.37044984	      0.79804475	      0.27921527	     39.43350429	      9.68714830	      0.00000000	    -55.89444745	     41.33715687	     23.51946155	     -3.98810533	      0.00000000	    -85.31044457	     19.01511252	     -5.00000214
      1.47000000	     -6.22292525	     -2.05199840	      0.20668693	     -0.36061526	      0.79909551	      0.28211407	     38.55128015	     10.46288551	      0.00000000	    -55.54764541	     42.00556914	     25.25372286	     -4.76618406	      0.00000000	    -86.42434547	     19.52322290	     -5.00000214
